<svg width="45" height="45" viewBox="0 0 45 45" fill="none" xmlns="http://www.w3.org/2000/svg">
<rect width="45" height="45" rx="8" fill="#0B2447"/>
<path d="M39 22.1657V34.987C39 37.2502 37.2652 39 35.2273 39H9.77273C7.73482 39 6 37.2502 6 34.987V22.1657C6 21.0183 6.46131 19.9354 7.25284 19.1796L19.9801 7.02692C21.4141 5.65769 23.5859 5.65769 25.0199 7.02692L37.7472 19.1796C38.5387 19.9354 39 21.0183 39 22.1657Z" stroke="white" stroke-width="2" stroke-linecap="round" stroke-linejoin="round"/>
<path d="M15.6267 33.6365C14.319 33.6365 13.2815 33.0975 12.5142 32.0195C11.7469 30.9415 11.3633 29.481 11.3633 27.6379C11.3633 25.7949 11.7415 24.3402 12.498 23.2738C13.2653 22.1958 14.3082 21.6568 15.6267 21.6568C16.9344 21.6568 17.9664 22.1958 18.7229 23.2738C19.4902 24.3402 19.8739 25.7949 19.8739 27.6379C19.8739 29.481 19.4902 30.9415 18.7229 32.0195C17.9556 33.0975 16.9235 33.6365 15.6267 33.6365ZM15.6267 31.863C16.4048 31.863 17.01 31.4921 17.4423 30.7502C17.8854 30.0084 18.1069 28.9709 18.1069 27.6379C18.1069 26.757 18.0043 26.0036 17.7989 25.3776C17.6044 24.7401 17.318 24.2591 16.9398 23.9345C16.5723 23.5984 16.1346 23.4303 15.6267 23.4303C15.108 23.4303 14.6595 23.5984 14.2812 23.9345C13.903 24.2591 13.6166 24.7401 13.422 25.3776C13.2275 26.0036 13.1302 26.757 13.1302 27.6379C13.1302 28.9709 13.3464 30.0084 13.7787 30.7502C14.2218 31.4921 14.8378 31.863 15.6267 31.863Z" fill="white"/>
<path d="M23.8772 26.5773C23.0883 26.5773 22.4398 26.3107 21.9319 25.7775C21.4348 25.2443 21.1862 24.5604 21.1862 23.7259C21.1862 22.9029 21.4348 22.2306 21.9319 21.709C22.4398 21.1758 23.0883 20.9092 23.8772 20.9092C24.6661 20.9092 25.3091 21.1758 25.8062 21.709C26.3034 22.2306 26.5519 22.9029 26.5519 23.7259C26.5519 24.5604 26.298 25.2443 25.79 25.7775C25.2929 26.3107 24.6553 26.5773 23.8772 26.5773ZM22.9045 33.4974L29.7941 21.2395H31.6907L24.8012 33.4974H22.9045ZM23.8772 25.0473C24.0501 25.0473 24.2122 25.0183 24.3635 24.9603C24.5148 24.8908 24.6445 24.7981 24.7526 24.6822C24.8606 24.5662 24.9417 24.4271 24.9957 24.2649C25.0606 24.1026 25.093 23.9229 25.093 23.7259C25.093 23.3549 24.9795 23.0478 24.7526 22.8044C24.5256 22.5494 24.2338 22.4218 23.8772 22.4218C23.5313 22.4218 23.2396 22.5494 23.0018 22.8044C22.7748 23.0478 22.6614 23.3549 22.6614 23.7259C22.6614 24.1084 22.7748 24.4271 23.0018 24.6822C23.2396 24.9256 23.5313 25.0473 23.8772 25.0473ZM32.8741 32.7323C32.377 33.2539 31.7394 33.5147 30.9612 33.5147C30.1831 33.5147 29.5401 33.2539 29.0322 32.7323C28.535 32.1991 28.2865 31.521 28.2865 30.6981C28.2865 29.8751 28.535 29.2028 29.0322 28.6812C29.5401 28.148 30.1831 27.8814 30.9612 27.8814C31.7394 27.8814 32.377 28.148 32.8741 28.6812C33.382 29.2028 33.636 29.8751 33.636 30.6981C33.636 31.521 33.382 32.1991 32.8741 32.7323ZM30.9612 31.9847C31.1882 31.9847 31.3935 31.9325 31.5773 31.8282C31.761 31.7123 31.9015 31.5558 31.9987 31.3588C32.1068 31.1617 32.1608 30.9415 32.1608 30.6981C32.1608 30.3155 32.0474 30.0026 31.8204 29.7592C31.6043 29.5157 31.3179 29.394 30.9612 29.394C30.7883 29.394 30.6262 29.4288 30.4749 29.4983C30.3236 29.5679 30.1939 29.6606 30.0859 29.7765C29.9886 29.8809 29.9076 30.0142 29.8427 30.1764C29.7779 30.3387 29.7454 30.5126 29.7454 30.6981C29.7454 31.069 29.8589 31.3761 30.0859 31.6196C30.3236 31.863 30.6154 31.9847 30.9612 31.9847Z" fill="white"/>
</svg>
