<svg width="30" height="30" viewBox="0 0 30 30" fill="none" xmlns="http://www.w3.org/2000/svg">
<g clip-path="url(#clip0_65_5803)">
<path d="M15 0C6.72972 0 2.13868e-08 6.72972 0 15C0 19.0079 1.56057 22.7741 4.39432 25.6057C7.22593 28.4394 10.9943 30 15 30C23.2703 30 30 23.2703 30 15C30 6.72972 23.2703 2.13868e-08 15 0ZM15 2.13868C22.0897 2.13868 27.8613 7.90814 27.8613 15C27.8613 18.3641 26.5493 21.4186 24.4277 23.7134C22.9585 21.9726 21.0605 20.6917 18.9432 19.9624C20.3782 18.784 21.3158 17.0107 21.3158 14.9875C21.3158 11.4629 18.4484 8.59649 14.8747 8.59649C11.3523 8.59649 8.48371 11.4617 8.48371 15.0376C8.48371 17.0244 9.41514 18.7821 10.8438 19.9541C8.76926 20.6641 6.89921 21.9051 5.44277 23.584C3.31479 21.2207 2.13868 18.2037 2.13868 15C2.13868 7.90814 7.91028 2.13868 15 2.13868ZM14.9248 10.7352C17.2709 10.7352 19.1771 12.6423 19.1771 15.0376C19.1771 17.3345 17.3425 19.2025 15.0627 19.2774C15.0006 19.2774 14.9409 19.2648 14.8789 19.2648C14.8254 19.2648 14.7736 19.2752 14.7201 19.2774C12.4467 19.1918 10.6224 17.3293 10.6224 14.9875C10.6224 12.6435 12.5295 10.7352 14.9248 10.7352ZM14.7201 21.4119C14.7715 21.414 14.8234 21.4286 14.8747 21.4286H14.9248C14.9719 21.4286 15.0114 21.414 15.0585 21.4119C18.0933 21.4653 20.9261 22.8425 22.8488 25.1587C20.6759 26.8461 17.9578 27.8613 15 27.8613C12.055 27.8613 9.26366 26.8699 6.99666 25.0585C8.92147 22.8 11.7303 21.4589 14.7201 21.4119Z" fill="#0B2447"/>
</g>
<defs>
<clipPath id="clip0_65_5803">
<rect width="30" height="30" fill="white"/>
</clipPath>
</defs>
</svg>
