<svg width="30" height="30" viewBox="0 0 30 30" fill="none" xmlns="http://www.w3.org/2000/svg">
<path fill-rule="evenodd" clip-rule="evenodd" d="M30 8C30 3.58172 26.4182 0 22 0H7.99999C3.58172 0 0 3.58172 0 8V22C0 26.4183 3.58172 30 7.99999 30H22C26.4182 30 30 26.4183 30 22V8ZM10.2289 12.4334C8.56332 13.0804 6.85194 13.7452 5.28705 14.5121C4.47 15.0444 5.55586 15.421 6.57471 15.7742C6.73672 15.8304 6.89702 15.8859 7.0477 15.9414C7.17307 15.9757 7.30057 16.0118 7.42977 16.0485C8.56299 16.3697 9.82661 16.7279 10.9267 16.1891C12.734 15.2654 14.4396 14.1975 16.1439 13.1304C16.7022 12.7809 17.2604 12.4314 17.8219 12.0871C17.8482 12.0721 17.8779 12.055 17.9104 12.0363C17.9796 11.9964 18.0613 11.9493 18.1492 11.9004C18.999 11.4287 18.7166 12.3503 17.9823 12.9871C17.3683 13.5195 16.7372 14.027 16.104 14.5362C15.4209 15.0855 14.7353 15.6367 14.066 16.2236C13.6715 16.5087 13.2668 16.9891 13.2487 17.4527C13.2302 17.9272 13.7331 18.209 14.1373 18.4583C15.4433 19.2637 16.7645 20.0543 18.0851 20.8445C18.5822 21.1419 19.0792 21.4393 19.5753 21.7375C20.4151 22.334 21.7275 21.8514 21.9123 20.9192C21.9942 20.4918 22.0763 20.0645 22.1585 19.6371C22.6143 17.2658 23.0703 14.8937 23.4731 12.5147C23.5278 12.1419 23.5898 11.769 23.6519 11.3959C23.7617 10.7362 23.8715 10.0759 23.9411 9.41392C23.9926 8.92466 24.0341 8.30933 23.5864 8.10551C23.1339 7.89952 22.4189 8.03525 21.9541 8.17305C18.4172 9.37046 14.9155 10.6566 11.4278 11.9655C11.0326 12.1212 10.6321 12.2768 10.2289 12.4334Z" fill="#0B2447"/>
</svg>
